<svg width="0" height="0" class="hidden">
  <symbol xmlns="http://www.w3.org/2000/svg" viewBox="0 0 30 30" id="tg">
    <g clip-path="url(#clip0_2_1219)">
      <g clip-path="url(#clip1_2_1219)">
        <path d="M15 30C23.2852 30 30 23.2852 30 15C30 6.71484 23.2852 0 15 0C6.71484 0 0 6.71484 0 15C0 23.2852 6.71484 30 15 30ZM6.86133 14.6777L21.3281 9.09961C22.002 8.85938 22.5879 9.26367 22.3652 10.2773L19.9043 21.8789C19.7227 22.6992 19.2305 22.9043 18.5508 22.5117L14.8008 19.7461L12.9902 21.4863C12.791 21.6855 12.6211 21.8555 12.2344 21.8555L12.498 18.041L19.4531 11.7656C19.7578 11.502 19.3828 11.3496 18.9844 11.6133L10.3945 17.0215L6.69141 15.8672C5.88867 15.6094 5.87109 15.0645 6.86133 14.6777Z"></path>
      </g>
    </g>
    <defs>
      <clipPath id="clip0_2_1219">
        <rect width="30" height="30"></rect>
      </clipPath>
      <clipPath id="clip1_2_1219">
        <rect width="30" height="30"></rect>
      </clipPath>
    </defs>
  </symbol>
  <symbol xmlns="http://www.w3.org/2000/svg" viewBox="0 0 30 30" id="inst">
    <g clip-path="url(#clip0_2_1222)">
      <g clip-path="url(#clip1_2_1222)">
        <path d="M17.8711 15C17.8711 16.5879 16.5879 17.8711 15 17.8711C13.4121 17.8711 12.1289 16.5879 12.1289 15C12.1289 13.4121 13.4121 12.1289 15 12.1289C16.5879 12.1289 17.8711 13.4121 17.8711 15Z"></path>
        <path d="M21.7148 9.91992C21.5742 9.54492 21.3574 9.20508 21.0703 8.92969C20.7949 8.64258 20.4551 8.42578 20.0801 8.28516C19.7754 8.16797 19.3184 8.02734 18.4805 7.98633C17.5723 7.94531 17.2969 7.93359 15 7.93359C12.6973 7.93359 12.4277 7.93945 11.5195 7.98633C10.6816 8.02734 10.2246 8.16797 9.91992 8.28516C9.54492 8.42578 9.20508 8.64258 8.92969 8.92969C8.64258 9.20508 8.42578 9.54492 8.28516 9.91992C8.16797 10.2246 8.02734 10.6816 7.98633 11.5195C7.94531 12.4277 7.93359 12.6973 7.93359 15C7.93359 17.2969 7.94531 17.5723 7.98633 18.4805C8.02734 19.3184 8.16211 19.7754 8.28516 20.0801C8.42578 20.4551 8.64258 20.7949 8.92969 21.0703C9.20508 21.3574 9.54492 21.5742 9.91992 21.7148C10.2246 21.832 10.6816 21.9727 11.5195 22.0137C12.4277 22.0547 12.6973 22.0664 15 22.0664C17.3027 22.0664 17.5723 22.0605 18.4805 22.0137C19.3184 21.9727 19.7754 21.8379 20.0801 21.7148C20.8301 21.4277 21.4277 20.8301 21.7148 20.0801C21.832 19.7754 21.9727 19.3184 22.0137 18.4805C22.0547 17.5723 22.0664 17.2969 22.0664 15C22.0664 12.6973 22.0605 12.4277 22.0137 11.5195C21.9727 10.6816 21.832 10.2246 21.7148 9.91992ZM15 19.4238C12.5566 19.4238 10.5762 17.4434 10.5762 15C10.5762 12.5566 12.5566 10.5762 15 10.5762C17.4434 10.5762 19.4238 12.5566 19.4238 15C19.4238 17.4434 17.4434 19.4238 15 19.4238ZM19.5996 11.4375C19.0312 11.4375 18.5684 10.9746 18.5684 10.4063C18.5684 9.83789 19.0312 9.375 19.5996 9.375C20.168 9.375 20.6309 9.83789 20.6309 10.4063C20.6309 10.9746 20.168 11.4375 19.5996 11.4375Z"></path>
        <path d="M15 0C6.71484 0 0 6.71484 0 15C0 23.2852 6.71484 30 15 30C23.2852 30 30 23.2852 30 15C30 6.71484 23.2852 0 15 0ZM23.5605 18.5508C23.5195 19.4648 23.373 20.0918 23.1621 20.6426C22.7168 21.7969 21.8027 22.7168 20.6426 23.1621C20.0977 23.373 19.4707 23.5195 18.5508 23.5605C17.6309 23.6016 17.3379 23.6133 15 23.6133C12.6621 23.6133 12.3691 23.6016 11.4492 23.5605C10.5352 23.5195 9.9082 23.373 9.35742 23.1621C8.7832 22.9453 8.26172 22.6055 7.83398 22.166C7.39453 21.7383 7.05469 21.2168 6.83789 20.6426C6.62695 20.0977 6.48047 19.4707 6.43945 18.5508C6.39844 17.6309 6.38672 17.3379 6.38672 15C6.38672 12.6621 6.39844 12.3691 6.43945 11.4492C6.48047 10.5352 6.62695 9.9082 6.83789 9.35742C7.05469 8.7832 7.39453 8.26172 7.83398 7.83398C8.26172 7.39453 8.7832 7.05469 9.35742 6.83789C9.9082 6.62695 10.5293 6.48047 11.4492 6.43945C12.3691 6.39844 12.6621 6.38672 15 6.38672C17.3379 6.38672 17.6309 6.39844 18.5508 6.43945C19.4648 6.48047 20.0918 6.62695 20.6426 6.83789C21.2168 7.05469 21.7383 7.39453 22.166 7.83398C22.6055 8.26172 22.9453 8.7832 23.1621 9.35742C23.373 9.9082 23.5195 10.5293 23.5605 11.4492C23.6016 12.3691 23.6133 12.6621 23.6133 15C23.6133 17.3379 23.6016 17.6309 23.5605 18.5508Z"></path>
      </g>
    </g>
    <defs>
      <clipPath id="clip0_2_1222">
        <rect width="30" height="30"></rect>
      </clipPath>
      <clipPath id="clip1_2_1222">
        <rect width="30" height="30"></rect>
      </clipPath>
    </defs>
  </symbol>
  <symbol xmlns="http://www.w3.org/2000/svg" viewBox="0 0 30 30" id="vk">
    <path d="M15 0C6.71779 0 0 6.71779 0 15C0 23.2822 6.71779 30 15 30C23.2822 30 30 23.2822 30 15C30 6.71779 23.2822 0 15 0ZM22.6074 16.6258C23.3129 17.3006 24.0491 17.9448 24.6626 18.7117C24.9386 19.0491 25.2147 19.3865 25.3988 19.7853C25.6748 20.3374 25.4294 20.9509 24.9386 20.9816H21.8712C21.0736 21.0429 20.4601 20.7362 19.908 20.184C19.4785 19.7546 19.0798 19.2945 18.681 18.8344C18.5276 18.6503 18.3436 18.4663 18.1288 18.3436C17.6994 18.0675 17.3313 18.1595 17.1166 18.589C16.8712 19.0491 16.8098 19.5399 16.7791 20.0307C16.7485 20.7669 16.5337 20.9509 15.7975 20.9816C14.2331 21.0429 12.7607 20.8282 11.411 20.0307C10.2147 19.3252 9.2638 18.3742 8.46626 17.2699C6.87117 15.1227 5.67485 12.7607 4.57055 10.3374C4.32515 9.78528 4.5092 9.5092 5.1227 9.47853C6.13497 9.44785 7.11656 9.44785 8.12883 9.47853C8.52761 9.47853 8.80368 9.72393 8.95705 10.092C9.5092 11.411 10.1534 12.6994 10.9816 13.865C11.1963 14.1718 11.4417 14.4785 11.7485 14.7239C12.1166 14.9693 12.362 14.8773 12.546 14.4785C12.638 14.2331 12.6994 13.9571 12.7301 13.681C12.8221 12.7607 12.8221 11.8405 12.6687 10.9202C12.5767 10.3067 12.2699 9.93865 11.6871 9.81595C11.3804 9.7546 11.4417 9.66258 11.5644 9.47853C11.8098 9.20245 12.0552 9.0184 12.5153 9.0184H15.9816C16.5337 9.1411 16.6564 9.35583 16.7178 9.90797V13.773C16.7178 13.9877 16.8098 14.6319 17.2086 14.7546C17.5153 14.8466 17.7301 14.6012 17.9141 14.4172C18.7423 13.5276 19.3252 12.4847 19.8773 11.411C20.1227 10.9202 20.3067 10.4294 20.5215 9.93865C20.6748 9.57055 20.8896 9.3865 21.319 9.3865H24.6626C24.7546 9.3865 24.8466 9.3865 24.9693 9.41718C25.5215 9.5092 25.6748 9.7546 25.5215 10.3067C25.2454 11.1656 24.7239 11.9018 24.2025 12.6074C23.6503 13.3742 23.0368 14.1104 22.4847 14.908C21.9325 15.6442 21.9632 16.0123 22.6074 16.6258Z"></path>
  </symbol>
  <symbol xmlns="http://www.w3.org/2000/svg" viewBox="0 0 30 30" id="fb">
    <g clip-path="url(#clip0_2_1225)">
      <g clip-path="url(#clip1_2_1225)">
        <path d="M17.4199 29.8066C17.2969 29.8242 17.168 29.8477 17.0449 29.8652C17.168 29.8418 17.291 29.8242 17.4199 29.8066Z"></path>
        <path d="M17.7188 29.7539C17.6602 29.7656 17.6016 29.7773 17.5371 29.7832C17.6016 29.7773 17.6602 29.7656 17.7188 29.7539Z"></path>
        <path d="M16.7051 29.9004C16.5586 29.918 16.4121 29.9297 16.2656 29.9414C16.4121 29.9355 16.5586 29.918 16.7051 29.9004Z"></path>
        <path d="M16.998 29.8652C16.9277 29.877 16.8574 29.8828 16.7871 29.8887C16.8516 29.8828 16.9277 29.877 16.998 29.8652Z"></path>
        <path d="M18.1289 29.6719C18.0762 29.6836 18.0234 29.6953 17.9707 29.707C18.0234 29.6953 18.0762 29.6836 18.1289 29.6719Z"></path>
        <path d="M19.1426 29.4199C19.1016 29.4316 19.0547 29.4434 19.0137 29.4551C19.0547 29.4434 19.0957 29.4316 19.1426 29.4199Z"></path>
        <path d="M18.832 29.502C18.7852 29.5137 18.7383 29.5254 18.6914 29.5371C18.7441 29.5313 18.7852 29.5195 18.832 29.502Z"></path>
        <path d="M18.4336 29.6074C18.3867 29.6191 18.334 29.6309 18.2871 29.6426C18.334 29.625 18.3867 29.6133 18.4336 29.6074Z"></path>
        <path d="M16.2598 29.9473C16.1836 29.9531 16.1016 29.959 16.0254 29.9648C16.1016 29.959 16.1836 29.9531 16.2598 29.9473Z"></path>
        <path d="M30 15C30 6.71484 23.2852 0 15 0C6.71484 0 0 6.71484 0 15C0 23.2852 6.71484 30 15 30C15.0879 30 15.1758 30 15.2637 29.9941V18.3223H12.041V14.5664H15.2637V11.8008C15.2637 8.5957 17.2207 6.84961 20.0801 6.84961C21.4512 6.84961 22.6289 6.94922 22.9688 6.99609V10.3477H21C19.4473 10.3477 19.1426 11.0859 19.1426 12.1699V14.5605H22.8633L22.377 18.3164H19.1426V29.4199C25.4121 27.6211 30 21.8496 30 15Z"></path>
        <path d="M15.9902 29.9648C15.832 29.9766 15.6797 29.9824 15.5215 29.9883C15.6797 29.9824 15.832 29.9766 15.9902 29.9648Z"></path>
        <path d="M15.5156 29.9883C15.4336 29.9883 15.3516 29.9941 15.2695 29.9941C15.3457 29.9941 15.4277 29.9941 15.5156 29.9883Z"></path>
      </g>
    </g>
    <defs>
      <clipPath id="clip0_2_1225">
        <rect width="30" height="30"></rect>
      </clipPath>
      <clipPath id="clip1_2_1225">
        <rect width="30" height="30"></rect>
      </clipPath>
    </defs>
  </symbol>
  <symbol xmlns="http://www.w3.org/2000/svg" viewBox="0 0 53 53" id="w2">
    <g clip-path="url(#clip0_34007_356)">
      <path d="M28.404 3.41299C27.428 2.86099 26.273 2.87899 25.314 3.45699C25.268 3.48399 25.224 3.51599 25.184 3.54999L11.634 15.013H1C0.447 15.013 0 15.46 0 16.013V35.013C0 35.279 0.105 35.533 0.293 35.72C0.481 35.907 0.734 36.013 1 36.013L11.61 36.008L25.153 48.448C25.203 48.494 25.257 48.534 25.314 48.568C25.806 48.865 26.351 49.014 26.896 49.014C27.413 49.013 27.929 48.88 28.404 48.612C29.403 48.048 30 47.018 30 45.857V6.16899C30 5.00799 29.403 3.97799 28.404 3.41299ZM28 45.857C28 46.288 27.783 46.667 27.421 46.872C27.266 46.959 26.873 47.127 26.421 46.898L13 34.569V30.013C13 29.46 12.553 29.013 12 29.013C11.447 29.013 11 29.46 11 30.013V34.009L2 34.013V17.013H11V21.013C11 21.566 11.447 22.013 12 22.013C12.553 22.013 13 21.566 13 21.013V16.477L26.405 5.13699C26.866 4.89499 27.265 5.06699 27.421 5.15499C27.783 5.35999 28 5.73899 28 6.16899V45.857Z"></path>
      <path d="M38.797 7.06596C38.274 6.88896 37.706 7.16896 37.528 7.69196C37.351 8.21396 37.631 8.78296 38.154 8.96096C45.255 11.372 50.026 18.024 50.026 25.514C50.026 32.997 45.264 39.65 38.177 42.068C37.655 42.246 37.375 42.814 37.554 43.338C37.696 43.753 38.084 44.015 38.5 44.015C38.607 44.015 38.716 43.998 38.823 43.961C46.719 41.268 52.025 33.855 52.025 25.515C52.026 17.166 46.71 9.75296 38.797 7.06596Z"></path>
      <path d="M43.026 25.513C43.026 19.541 39.017 14.211 33.277 12.551C32.744 12.4 32.193 12.703 32.039 13.235C31.886 13.765 32.191 14.32 32.723 14.473C37.612 15.886 41.027 20.426 41.027 25.513C41.027 30.6 37.612 35.14 32.723 36.553C32.192 36.706 31.886 37.261 32.039 37.791C32.166 38.229 32.565 38.514 33 38.514C33.092 38.514 33.185 38.501 33.277 38.475C39.018 36.815 43.026 31.485 43.026 25.513Z"></path>
    </g>
    <defs>
      <clipPath id="clip0_34007_356">
        <rect width="52.026" height="52.026"></rect>
      </clipPath>
    </defs>
  </symbol>
  <symbol xmlns="http://www.w3.org/2000/svg" viewBox="0 0 32 60" id="w1">
    <path d="M28.536 4H22V0H10V4H3.464C1.554 4 0 5.554 0 7.464V56.536C0 58.446 1.554 60 3.464 60H28.536C30.446 60 32 58.446 32 56.536V7.464C32 5.554 30.446 4 28.536 4ZM2 19H30V31H2V19ZM2 33H30V45H2V33ZM12 2H20V4H12V2ZM3.464 6H10H22H28.536C29.344 6 30 6.656 30 7.464V17H2V7.464C2 6.656 2.656 6 3.464 6ZM28.536 58H3.464C2.656 58 2 57.344 2 56.536V47H30V56.536C30 57.344 29.344 58 28.536 58Z"></path>
  </symbol>
  <symbol xmlns="http://www.w3.org/2000/svg" viewBox="0 0 60 60" id="w3">
    <path d="M31.634 37.989C32.675 37.908 33.624 37.377 34.24 36.53L43.603 23.586C43.89 23.189 43.847 22.641 43.499 22.293C43.151 21.946 42.603 21.903 42.206 22.189L29.26 31.555C28.416 32.169 27.885 33.118 27.804 34.159C27.723 35.2 28.1 36.219 28.837 36.956C29.508 37.628 30.413 38 31.354 38C31.447 38 31.54 37.996 31.634 37.989ZM29.798 34.315C29.833 33.858 30.067 33.441 30.435 33.173L38.332 27.46L32.621 35.355C32.351 35.726 31.934 35.959 31.477 35.995C31.022 36.025 30.575 35.867 30.25 35.542C29.928 35.219 29.762 34.771 29.798 34.315Z"></path>
    <path d="M54.034 19.564C54.024 19.543 54.024 19.521 54.013 19.5C54.001 19.48 53.982 19.469 53.969 19.45C52.958 17.716 51.762 16.103 50.404 14.641L52.552 12.494L53.966 13.908L58.208 9.665L53.966 5.423L49.723 9.665L51.138 11.08L48.99 13.227C47.528 11.869 45.916 10.672 44.181 9.661C44.162 9.648 44.151 9.629 44.131 9.617C44.11 9.605 44.088 9.606 44.067 9.595C40.974 7.813 37.499 6.626 33.794 6.191V5H35.294C36.673 5 37.794 3.879 37.794 2.5C37.794 1.121 36.672 0 35.293 0H26.293C24.914 0 23.793 1.121 23.793 2.5C23.793 3.879 24.914 5 26.293 5H27.793V6.156C26.713 6.271 25.635 6.447 24.569 6.691C24.031 6.814 23.694 7.351 23.818 7.889C23.941 8.427 24.478 8.765 25.016 8.64C25.936 8.429 26.865 8.27 27.796 8.163L28.869 8.08C29.197 8.055 29.499 8.037 29.793 8.023V10C29.793 10.553 30.24 11 30.793 11C31.346 11 31.793 10.553 31.793 10V8.03C35.554 8.203 39.098 9.213 42.249 10.875L41.263 12.582C40.987 13.061 41.151 13.672 41.629 13.948C41.786 14.039 41.958 14.082 42.128 14.082C42.474 14.082 42.81 13.903 42.995 13.582L43.978 11.879C47.107 13.864 49.765 16.522 51.75 19.651L50.047 20.634C49.57 20.91 49.406 21.521 49.683 22C49.869 22.321 50.204 22.5 50.55 22.5C50.72 22.5 50.892 22.457 51.049 22.366L52.756 21.38C54.441 24.576 55.454 28.178 55.605 31.999H53.63C53.077 31.999 52.63 32.446 52.63 32.999C52.63 33.552 53.077 33.999 53.63 33.999H55.605C55.454 37.82 54.441 41.422 52.756 44.618L51.049 43.632C50.571 43.356 49.959 43.518 49.683 43.998C49.407 44.477 49.571 45.088 50.049 45.364L51.752 46.347C49.767 49.476 47.109 52.134 43.98 54.119L42.997 52.416C42.72 51.936 42.107 51.773 41.631 52.05C41.152 52.326 40.988 52.938 41.265 53.416L42.251 55.123C39.1 56.785 35.556 57.795 31.795 57.968V56C31.795 55.447 31.348 55 30.795 55C30.242 55 29.795 55.447 29.795 56V57.976C28.198 57.921 26.596 57.721 25.019 57.359C24.481 57.23 23.944 57.572 23.821 58.11C23.697 58.648 24.034 59.185 24.572 59.308C26.568 59.768 28.607 60 30.63 60C30.679 60 30.726 59.997 30.775 59.996C30.782 59.996 30.787 60 30.793 60C30.801 60 30.808 59.995 30.816 59.995C35.623 59.962 40.133 58.664 44.035 56.422C44.066 56.408 44.099 56.401 44.129 56.383C44.149 56.371 44.16 56.352 44.179 56.339C48.218 53.985 51.593 50.614 53.952 46.578C53.971 46.551 53.995 46.53 54.012 46.5C54.024 46.479 54.023 46.457 54.033 46.436C56.317 42.476 57.63 37.89 57.63 33C57.63 28.11 56.317 23.524 54.034 19.564ZM53.965 8.251L55.379 9.665L53.965 11.08L52.55 9.665L53.965 8.251ZM29.793 6.021V3H26.293C26.018 3 25.793 2.775 25.793 2.5C25.793 2.225 26.018 2 26.293 2H35.293C35.568 2 35.793 2.225 35.793 2.5C35.793 2.775 35.568 3 35.293 3H31.793V6.021C31.445 6.007 31.113 6 30.793 6C30.765 6 30.733 6.002 30.705 6.002C30.68 6.002 30.655 6 30.63 6C30.466 6 30.302 6.011 30.138 6.014C30.022 6.017 29.913 6.016 29.793 6.021Z"></path>
    <path d="M21.793 14H16.793C16.24 14 15.793 14.447 15.793 15C15.793 15.553 16.24 16 16.793 16H21.793C22.346 16 22.793 15.553 22.793 15C22.793 14.447 22.346 14 21.793 14Z"></path>
    <path d="M21.793 21H11.793C11.24 21 10.793 21.447 10.793 22C10.793 22.553 11.24 23 11.793 23H21.793C22.346 23 22.793 22.553 22.793 22C22.793 21.447 22.346 21 21.793 21Z"></path>
    <path d="M21.793 28H6.793C6.24 28 5.793 28.447 5.793 29C5.793 29.553 6.24 30 6.793 30H21.793C22.346 30 22.793 29.553 22.793 29C22.793 28.447 22.346 28 21.793 28Z"></path>
    <path d="M21.793 35H2.793C2.24 35 1.793 35.447 1.793 36C1.793 36.553 2.24 37 2.793 37H21.793C22.346 37 22.793 36.553 22.793 36C22.793 35.447 22.346 35 21.793 35Z"></path>
    <path d="M21.793 42H8.793C8.24 42 7.793 42.447 7.793 43C7.793 43.553 8.24 44 8.793 44H21.793C22.346 44 22.793 43.553 22.793 43C22.793 42.447 22.346 42 21.793 42Z"></path>
    <path d="M21.793 49H14.793C14.24 49 13.793 49.447 13.793 50C13.793 50.553 14.24 51 14.793 51H21.793C22.346 51 22.793 50.553 22.793 50C22.793 49.447 22.346 49 21.793 49Z"></path>
  </symbol>
</svg>
